# xmcd
#
# Track frame offsets: 
#        150
#        14063
#        29558
#        43120
#        55227
#        71665
#        90338
#        105878
#        122031
#        139901
#        155089
#        174440
#
# Disc length: 2505 seconds
#
# Revision: 0
# Processed by: cddbd v1.5.2PL0 Copyright (c) Steve Scherf et al.
# Submitted via: ExactAudioCopyFreeDBPlugin 1.0
#
DISCID=a209c70c
DTITLE=Lasse Hoikka - Legendat 2006-2008 (2009)
DYEAR=2009
DGENRE=Country
TTITLE0=Taivas [2008]
TTITLE1=Kaunis On Kotimaa [2008]
TTITLE2=Kairan Tyttö Tulinen [2006]
TTITLE3=Käy Tanssimaan [2006]
TTITLE4=Ei Mitään Suurempaa [2008]
TTITLE5=Aamuun On Tuokio Aikaa [2008]
TTITLE6=Katson Tähteen Jokaiseen [2006]
TTITLE7=Näkemiin [2008]
TTITLE8=Lapin Äidin Kehtolaulu [2008]
TTITLE9=Matkaan [2006]
TTITLE10=Syyslaulu (Höstvisa) [2008]
TTITLE11=Suojelusenkeli [2008]
EXTD=
EXTT0=
EXTT1=
EXTT2=
EXTT3=
EXTT4=
EXTT5=
EXTT6=
EXTT7=
EXTT8=
EXTT9=
EXTT10=
EXTT11=
PLAYORDER=
